<svg width="329" height="83" viewBox="0 0 329 83" fill="none" xmlns="http://www.w3.org/2000/svg">
<rect width="329" height="83" rx="23" fill="#1E1E1E"/>
<path d="M143.49 30C138.447 30 134.669 33.6238 134.669 38.194V44.806C134.669 49.3762 138.447 53 143.49 53C148.532 53 152.311 49.3762 152.311 44.806V38.194C152.311 33.617 148.519 30 143.49 30ZM148.532 44.806C148.532 47.5102 146.322 49.5385 143.49 49.5385C140.658 49.5385 138.447 47.5102 138.447 44.806V38.194C138.447 35.4897 140.658 33.4615 143.49 33.4615C146.322 33.4615 148.532 35.4897 148.532 38.194V44.806Z" fill="#F8F7F3"/>
<path d="M191.677 30C186.641 30 182.89 33.6238 182.89 38.194V44.806C182.89 49.3762 186.668 53 191.677 53C196.686 53 200.464 49.3762 200.464 44.806V38.194C200.499 33.617 196.719 30 191.677 30ZM196.719 44.806C196.719 47.5102 194.516 49.5385 191.677 49.5385C191.034 49.5685 190.39 49.4688 189.786 49.2454C189.181 49.022 188.627 48.6794 188.158 48.2381C187.688 47.7967 187.312 47.2655 187.052 46.6759C186.791 46.0864 186.652 45.4505 186.641 44.806V38.194C186.652 37.5495 186.791 36.9136 187.052 36.324C187.312 35.7345 187.688 35.2033 188.158 34.7619C188.627 34.3205 189.181 33.978 189.786 33.7546C190.39 33.5312 191.034 33.4315 191.677 33.4615C194.516 33.4615 196.719 35.4897 196.719 38.194V44.806Z" fill="#F8F7F3"/>
<path d="M167.586 30C162.388 30 158.61 33.6238 158.61 38.3495V52.209C158.61 52.2921 158.642 52.3719 158.7 52.4313C158.758 52.4907 158.837 52.5249 158.92 52.5268H162.07C162.112 52.5268 162.153 52.5185 162.192 52.5025C162.23 52.4866 162.266 52.4632 162.295 52.4336C162.325 52.4042 162.348 52.3691 162.364 52.3306C162.38 52.2921 162.388 52.2508 162.388 52.209V38.3495C162.388 35.5168 164.592 33.4683 167.586 33.4683C170.58 33.4683 172.784 35.4965 172.784 38.3495V52.209C172.783 52.2504 172.791 52.2916 172.806 52.3301C172.821 52.3687 172.844 52.4037 172.873 52.4333C172.901 52.4628 172.936 52.4864 172.975 52.5024C173.013 52.5185 173.053 52.5268 173.095 52.5268H176.231C176.316 52.5268 176.397 52.4933 176.457 52.4336C176.515 52.3741 176.55 52.2933 176.55 52.209V38.3495C176.562 33.617 172.784 30 167.586 30Z" fill="#F8F7F3"/>
<path d="M215.776 30C210.577 30 206.799 33.6238 206.799 38.3495V52.209C206.799 52.2508 206.807 52.2921 206.823 52.3306C206.84 52.3691 206.863 52.4042 206.892 52.4336C206.922 52.4632 206.957 52.4866 206.996 52.5025C207.034 52.5185 207.075 52.5268 207.117 52.5268H210.267C210.35 52.5249 210.429 52.4907 210.488 52.4313C210.545 52.3719 210.577 52.2921 210.577 52.209V38.3495C210.577 35.5168 212.782 33.4683 215.776 33.4683C218.771 33.4683 220.974 35.4965 220.974 38.3495V52.209C220.974 52.2921 221.006 52.3719 221.065 52.4313C221.122 52.4907 221.201 52.5249 221.285 52.5268H224.435C224.519 52.5268 224.6 52.4933 224.659 52.4336C224.719 52.3741 224.752 52.2933 224.752 52.209V38.3495C224.752 33.617 220.974 30 215.776 30Z" fill="#F8F7F3"/>
<path d="M239.871 30C234.829 30 231.084 33.6238 231.084 38.194V44.806C231.084 49.3762 234.862 53 239.871 53C244.88 53 248.658 49.3762 248.658 44.806V38.194C248.686 33.617 244.906 30 239.871 30ZM244.908 44.806C244.897 45.4505 244.757 46.0864 244.497 46.6759C244.236 47.2655 243.86 47.7967 243.39 48.2381C242.921 48.6794 242.368 49.022 241.763 49.2454C241.158 49.4688 240.515 49.5685 239.871 49.5385C237.033 49.5385 234.829 47.5102 234.829 44.806V38.194C234.829 35.4897 237.033 33.4615 239.871 33.4615C240.515 33.4315 241.158 33.5312 241.763 33.7546C242.368 33.978 242.921 34.3205 243.39 34.7619C243.86 35.2033 244.236 35.7345 244.497 36.324C244.757 36.9136 244.897 37.5495 244.908 38.194V44.806Z" fill="#F8F7F3"/>
<path d="M272.892 30.4672H270.066C269.935 30.4662 269.806 30.5069 269.7 30.5834C269.593 30.6599 269.513 30.7683 269.471 30.8931L263.428 48.0519C263.408 48.1131 263.368 48.1662 263.316 48.2039C263.263 48.2415 263.199 48.2617 263.135 48.2617C263.07 48.2617 263.006 48.2415 262.955 48.2039C262.902 48.1662 262.861 48.1131 262.841 48.0519L256.825 30.8931C256.784 30.7683 256.703 30.6599 256.596 30.5834C256.489 30.5069 256.362 30.4662 256.229 30.4672H253.404C253.329 30.4673 253.255 30.4855 253.187 30.5201C253.12 30.5548 253.063 30.605 253.019 30.6665C252.976 30.7281 252.947 30.7991 252.937 30.8738C252.926 30.9485 252.933 31.0247 252.958 31.0959L260.089 51.466C260.199 51.7737 260.4 52.0403 260.665 52.2291C260.932 52.418 261.251 52.5199 261.577 52.5207H264.693C265.02 52.5199 265.337 52.418 265.604 52.2291C265.869 52.0403 266.07 51.7737 266.18 51.466L273.311 31.0959C273.335 31.0268 273.343 30.953 273.334 30.8803C273.324 30.8076 273.299 30.7381 273.258 30.6771C273.217 30.6162 273.163 30.5655 273.1 30.5291C273.036 30.4926 272.965 30.4714 272.892 30.4672Z" fill="#F8F7F3"/>
<path d="M294.732 51.892L287.608 31.5218C287.499 31.2141 287.298 30.9475 287.031 30.7587C286.765 30.5698 286.447 30.468 286.12 30.4672H283.032C282.705 30.468 282.387 30.5698 282.121 30.7587C281.854 30.9475 281.653 31.2141 281.544 31.5218L274.42 51.892C274.395 51.9631 274.388 52.0393 274.398 52.114C274.409 52.1887 274.437 52.2597 274.481 52.3212C274.525 52.3828 274.582 52.433 274.649 52.4678C274.717 52.5024 274.79 52.5205 274.866 52.5207H277.691C277.822 52.5207 277.951 52.4795 278.057 52.4031C278.164 52.3268 278.244 52.2189 278.287 52.0947L284.295 34.936C284.318 34.8755 284.359 34.8233 284.412 34.7865C284.466 34.7497 284.528 34.7299 284.593 34.7299C284.658 34.7299 284.721 34.7497 284.774 34.7865C284.827 34.8233 284.868 34.8755 284.89 34.936L290.9 52.0947C290.942 52.2183 291.023 52.3256 291.13 52.4019C291.236 52.4781 291.363 52.5196 291.494 52.5207H294.319C294.393 52.5154 294.463 52.4935 294.525 52.4567C294.588 52.4198 294.641 52.369 294.681 52.3083C294.722 52.2474 294.747 52.1782 294.755 52.106C294.764 52.0337 294.756 51.9605 294.732 51.892Z" fill="#F8F7F3"/>
<path d="M127.895 30.4672H125.192C124.954 30.4722 124.721 30.5367 124.514 30.6548C124.308 30.7729 124.134 30.9408 124.009 31.1432L117.29 41.4398C117.261 41.483 117.221 41.5185 117.175 41.543C117.129 41.5675 117.078 41.5802 117.026 41.5802C116.974 41.5802 116.923 41.5675 116.877 41.543C116.831 41.5185 116.792 41.483 116.762 41.4398L110.044 31.1432C109.918 30.9398 109.743 30.7713 109.535 30.6532C109.327 30.5351 109.093 30.4711 108.854 30.4672H106.15C106.025 30.4672 105.904 30.517 105.816 30.6058C105.727 30.6945 105.677 30.8149 105.677 30.9404V52.0474C105.677 52.1729 105.727 52.2933 105.816 52.3821C105.904 52.4707 106.025 52.5207 106.15 52.5207H108.989C109.115 52.5207 109.235 52.4707 109.324 52.3821C109.413 52.2933 109.462 52.1729 109.462 52.0474V36.4504L114.823 44.5632C114.969 44.7745 115.166 44.9465 115.394 45.0644C115.623 45.1823 115.877 45.2423 116.134 45.2393H117.905C118.162 45.2423 118.416 45.1823 118.645 45.0644C118.873 44.9465 119.069 44.7745 119.216 44.5632L124.576 36.4504V52.0474C124.576 52.1729 124.626 52.2933 124.715 52.3821C124.804 52.4707 124.924 52.5207 125.05 52.5207H127.882C128.007 52.5207 128.128 52.4707 128.216 52.3821C128.305 52.2933 128.355 52.1729 128.355 52.0474V30.9404C128.355 30.8172 128.307 30.6988 128.221 30.6105C128.135 30.5221 128.018 30.4707 127.895 30.4672Z" fill="#F8F7F3"/>
<path d="M50.2676 32.3128C49.9735 31.7556 49.5329 31.2892 48.9933 30.9639C48.4537 30.6387 47.8356 30.4669 47.2056 30.4672H41.8859C41.6377 30.4672 41.3919 30.5162 41.1626 30.6114C40.9334 30.7066 40.7252 30.8461 40.55 31.022C40.3748 31.1979 40.236 31.4066 40.1416 31.6363C40.0472 31.8659 39.9991 32.1119 40 32.3602V50.6142C39.9991 50.8624 40.0472 51.1085 40.1416 51.338C40.236 51.5677 40.3748 51.7764 40.55 51.9523C40.7252 52.1282 40.9334 52.2677 41.1626 52.3629C41.3919 52.4581 41.6377 52.5071 41.8859 52.5071H56.7567C57.191 52.5072 57.6182 52.3951 57.9965 52.1814C58.3749 51.9679 58.6915 51.6601 58.9159 51.2881C59.1404 50.9159 59.2649 50.4923 59.2773 50.0579C59.2899 49.6236 59.1899 49.1934 58.9872 48.809L50.2676 32.3128Z" fill="#F8F7F3"/>
<path d="M80.8417 30.4672H75.522C74.8919 30.4669 74.2738 30.6387 73.7342 30.9639C73.1946 31.2892 72.754 31.7556 72.4599 32.3128L63.7335 48.8225C63.5308 49.2069 63.4309 49.637 63.4434 50.0714C63.4558 50.5057 63.5804 50.9295 63.8048 51.3015C64.0292 51.6736 64.3459 51.9813 64.7243 52.195C65.1026 52.4085 65.5297 52.5208 65.9641 52.5207H80.8349C81.0835 52.5207 81.3295 52.4717 81.5591 52.3766C81.7887 52.2815 81.9974 52.142 82.1731 51.9662C82.3489 51.7904 82.4883 51.5818 82.5835 51.352C82.6786 51.1224 82.7275 50.8763 82.7275 50.6276V32.3737C82.7293 32.1245 82.6819 31.8775 82.588 31.6467C82.4941 31.4159 82.3556 31.2059 82.1804 31.0288C82.0051 30.8516 81.7967 30.7109 81.5669 30.6145C81.3372 30.5181 81.0907 30.468 80.8417 30.4672Z" fill="#F8F7F3"/>
</svg>
