<svg preserveAspectRatio="none" width="100%" height="100%" overflow="visible" style="display: block;" viewBox="0 0 54.3594 62.125" fill="none" xmlns="http://www.w3.org/2000/svg">
<path id="Vector" fill-rule="evenodd" clip-rule="evenodd" d="M44.888 6.96332C40.5747 5.52025 34.3125 4.54577 27.1788 4.54577C20.0468 4.54577 13.7864 5.52025 9.4714 6.96332C7.2917 7.69107 5.86282 8.45787 5.0694 9.08445C4.90373 9.2158 4.78303 9.3223 4.7073 9.40395C4.7996 9.70747 5.0552 10.1051 5.70485 10.5932C6.63495 11.2926 8.14015 11.983 10.2542 12.5794C14.4574 13.7616 20.4267 14.3952 27.1806 14.3952C33.9344 14.3952 39.902 13.7616 44.1052 12.5794C46.2192 11.983 47.7262 11.2926 48.6545 10.5932C49.3042 10.1051 49.5598 9.70747 49.6521 9.40395C49.5388 9.28935 49.4178 9.18261 49.29 9.08445C48.4966 8.45787 47.0677 7.69285 44.888 6.96332ZM8.96197 16.9459C7.3911 16.5022 5.92672 15.9661 4.65937 15.3094V23.1069C4.65937 23.4548 4.83155 24.0193 5.76875 24.7772C6.71837 25.5458 8.23778 26.3197 10.3412 26.9995C14.5301 28.3556 20.4764 29.1686 27.1788 29.1686C33.8848 29.1686 39.831 28.3556 44.0182 26.9995C46.1216 26.3197 47.641 25.544 48.5906 24.7772C49.5278 24.0193 49.7 23.4548 49.7 23.1087V15.3094C48.4309 15.9661 46.9683 16.5039 45.3974 16.9459C40.6049 18.2949 34.151 18.941 27.1788 18.941C20.2066 18.941 13.7527 18.2949 8.96197 16.9459ZM54.3594 23.1069V9.09155C54.3594 4.07008 42.19 0 27.1788 0C12.1712 0 0 4.07008 0 9.09155V53.0334C0 58.0549 12.1694 62.125 27.1806 62.125C42.19 62.125 54.3594 58.0549 54.3594 53.0334V23.1069ZM49.7 29.5254C48.4575 30.2229 47.0286 30.814 45.4844 31.3145C40.6777 32.8712 34.1989 33.7143 27.1788 33.7143C20.1605 33.7143 13.6817 32.8712 8.875 31.3145C7.33075 30.814 5.9001 30.2229 4.65937 29.5254V37.1223C4.65937 37.4702 4.83155 38.0347 5.76875 38.7944C6.71837 39.5612 8.23778 40.3351 10.3412 41.0167C14.5301 42.371 20.4764 43.184 27.1788 43.184C33.8848 43.184 39.831 42.371 44.0182 41.0167C46.1216 40.3351 47.641 39.5612 48.5906 38.7944C49.5278 38.0347 49.7 37.4703 49.7 37.1241V29.5254ZM8.875 45.3299C7.33075 44.8312 5.9001 44.2383 4.65937 43.5425V52.6713C4.73747 52.7565 4.86527 52.879 5.0694 53.0405C5.86282 53.6671 7.2917 54.4339 9.4714 55.1617C13.7847 56.6047 20.0468 57.5792 27.1788 57.5792C34.3108 57.5792 40.5729 56.6047 44.888 55.1617C47.0677 54.4339 48.4966 53.6671 49.29 53.0405C49.436 52.9283 49.5731 52.8049 49.7 52.6713V43.5425C48.4575 44.2383 47.0286 44.8312 45.4844 45.3299C40.6777 46.8866 34.1989 47.7297 27.1788 47.7297C20.1605 47.7297 13.6817 46.8866 8.875 45.3299ZM11.6476 24.6228C12.9344 24.6228 13.9781 23.6057 13.9781 22.3508C13.9781 21.0959 12.9344 20.077 11.6476 20.077C10.3625 20.077 9.31875 21.0941 9.31875 22.349C9.31875 23.6039 10.3607 24.6228 11.6476 24.6228ZM13.9781 36.746C13.9781 37.9992 12.9344 39.0181 11.6476 39.0181C10.3625 39.0181 9.31875 37.9992 9.31875 36.746C9.31875 35.4893 10.3624 34.4723 11.6493 34.4723C12.9344 34.4723 13.9781 35.4911 13.9781 36.746ZM11.6476 53.0334C12.9344 53.0334 13.9781 52.0164 13.9781 50.7614C13.9781 49.5065 12.9344 48.4895 11.6476 48.4895C10.3625 48.4895 9.31875 49.5047 9.31875 50.7614C9.31875 52.0164 10.3607 53.0334 11.6476 53.0334Z" fill="var(--fill-0, #F6821F)"/>
</svg>
