<svg preserveAspectRatio="none" width="100%" height="100%" overflow="visible" style="display: block;" viewBox="0 0 66 57" fill="none" xmlns="http://www.w3.org/2000/svg">
<path id="Vector" d="M44.968 0H38.566V13.84L44.968 13.8573V0ZM30.184 7.99324L36.8544 14.5583L32.3136 18.9942L25.6564 12.4464L30.184 7.99324ZM17.534 20.6864H31.6228L31.6008 26.9831H17.534V20.6864ZM25.6652 35.2274L32.3312 28.6666L36.8456 33.1328L30.1928 39.6763L25.6608 35.2231L25.6652 35.2274ZM38.566 47.6695V33.8122L44.968 33.8339V47.6695H38.566ZM53.35 39.6849L46.6752 33.1198L51.216 28.6796L57.8776 35.2317L53.35 39.6849ZM66 26.9831H51.9112L51.9332 20.6864H66V26.9831ZM57.8732 12.4464L51.2028 19.0072L46.6928 14.541L53.35 7.99324L57.8732 12.4464ZM6.6 1.42381V4.97252H2.9832V10.6634H6.6V14.2165H12.3816V10.6678H15.994V4.97684H12.3816V1.42381H6.6ZM6.6 57V50.5085H0V44.8219H6.6V38.3347H12.3816V44.8219H18.9816V50.5085H12.3816V57H6.6Z" fill="var(--fill-0, #F6821F)"/>
</svg>
