<svg preserveAspectRatio="none" width="100%" height="100%" overflow="visible" style="display: block;" viewBox="0 0 62.5625 52.7819" fill="none" xmlns="http://www.w3.org/2000/svg">
<path id="Vector" d="M60.1562 0H2.40625L0 2.40625V50.3756L2.40625 52.7819H60.1562L62.5625 50.3756V2.40625L60.1562 0ZM57.75 4.8125V27.2997L48.125 19.4184L44.9728 19.5147L38.8609 25.1453L32.3272 20.3328L29.3562 20.4291L12.5125 34.5056L4.8125 29.2119V4.8125H57.75ZM4.8125 47.9694V35.0831L11.1891 39.5347L14.1006 39.4031L30.9813 25.3619L37.5985 30.1744L40.6544 30.0059L46.67 24.4363L57.75 33.5078V47.9453L4.8125 47.9694ZM15.7369 24.3513C17.0132 24.3513 18.2373 23.8442 19.1398 22.9417C20.0423 22.0392 20.5494 20.8151 20.5494 19.5388C20.5494 18.2624 20.0423 17.0383 19.1398 16.1358C18.2373 15.2333 17.0132 14.7263 15.7369 14.7263C14.4605 14.7263 13.2364 15.2333 12.3339 16.1358C11.4314 17.0383 10.9244 18.2624 10.9244 19.5388C10.9244 20.8151 11.4314 22.0392 12.3339 22.9417C13.2364 23.8442 14.4605 24.3513 15.7369 24.3513Z" fill="var(--fill-0, #F6821F)"/>
</svg>
