<svg preserveAspectRatio="none" width="100%" height="100%" overflow="visible" style="display: block;" viewBox="0 0 261 23" fill="none" xmlns="http://www.w3.org/2000/svg">
<g id="logo 2">
<path id="Vector" d="M109.49 0C104.447 0 100.669 3.62375 100.669 8.194V14.806C100.669 19.3762 104.447 23 109.49 23C114.532 23 118.311 19.3762 118.311 14.806V8.194C118.311 3.61699 114.519 0 109.49 0ZM114.532 14.806C114.532 17.5102 112.322 19.5385 109.49 19.5385C106.657 19.5385 104.447 17.5102 104.447 14.806V8.194C104.447 5.48971 106.657 3.4615 109.49 3.4615C112.322 3.4615 114.532 5.48971 114.532 8.194V14.806Z" fill="var(--fill-0, #F8F7F3)"/>
<path id="Vector_2" d="M157.677 0C152.641 0 148.89 3.62375 148.89 8.194V14.806C148.89 19.3762 152.668 23 157.677 23C162.686 23 166.464 19.3762 166.464 14.806V8.194C166.498 3.61699 162.719 0 157.677 0ZM162.719 14.806C162.719 17.5102 160.516 19.5385 157.677 19.5385C157.033 19.5685 156.39 19.4688 155.786 19.2454C155.181 19.022 154.627 18.6794 154.158 18.2381C153.688 17.7967 153.312 17.2655 153.052 16.6759C152.791 16.0864 152.652 15.4505 152.641 14.806V8.194C152.652 7.54951 152.791 6.9136 153.052 6.32405C153.312 5.73447 153.688 5.20326 154.158 4.76187C154.627 4.32049 155.181 3.97796 155.786 3.75459C156.39 3.5312 157.033 3.43154 157.677 3.4615C160.516 3.4615 162.719 5.48971 162.719 8.194V14.806Z" fill="var(--fill-0, #F8F7F3)"/>
<path id="Vector_3" d="M133.586 0C128.388 0 124.61 3.62375 124.61 8.3495V22.209C124.61 22.2921 124.642 22.3719 124.701 22.4313C124.758 22.4907 124.837 22.5249 124.92 22.5268H128.071C128.112 22.5268 128.153 22.5185 128.192 22.5025C128.23 22.4866 128.266 22.4632 128.295 22.4336C128.325 22.4042 128.348 22.3691 128.364 22.3306C128.38 22.2921 128.388 22.2508 128.388 22.209V8.3495C128.388 5.51676 130.592 3.46825 133.586 3.46825C136.58 3.46825 138.784 5.49647 138.784 8.3495V22.209C138.783 22.2504 138.791 22.2916 138.806 22.3301C138.821 22.3687 138.844 22.4037 138.873 22.4333C138.901 22.4628 138.936 22.4864 138.975 22.5024C139.013 22.5185 139.053 22.5268 139.095 22.5268H142.231C142.316 22.5268 142.397 22.4933 142.457 22.4336C142.515 22.3741 142.55 22.2933 142.55 22.209V8.3495C142.562 3.61699 138.784 0 133.586 0Z" fill="var(--fill-0, #F8F7F3)"/>
<path id="Vector_4" d="M181.776 0C176.577 0 172.799 3.62375 172.799 8.3495V22.209C172.799 22.2508 172.807 22.2921 172.823 22.3306C172.839 22.3691 172.862 22.4042 172.892 22.4336C172.922 22.4632 172.957 22.4866 172.996 22.5025C173.034 22.5185 173.075 22.5268 173.117 22.5268H176.267C176.35 22.5249 176.429 22.4907 176.488 22.4313C176.545 22.3719 176.577 22.2921 176.577 22.209V8.3495C176.577 5.51676 178.782 3.46825 181.776 3.46825C184.771 3.46825 186.974 5.49647 186.974 8.3495V22.209C186.974 22.2921 187.006 22.3719 187.065 22.4313C187.122 22.4907 187.201 22.5249 187.285 22.5268H190.435C190.518 22.5268 190.6 22.4933 190.659 22.4336C190.719 22.3741 190.752 22.2933 190.752 22.209V8.3495C190.752 3.61699 186.974 0 181.776 0Z" fill="var(--fill-0, #F8F7F3)"/>
<path id="Vector_5" d="M205.871 0C200.829 0 197.084 3.62375 197.084 8.194V14.806C197.084 19.3762 200.862 23 205.871 23C210.88 23 214.658 19.3762 214.658 14.806V8.194C214.686 3.61699 210.906 0 205.871 0ZM210.908 14.806C210.897 15.4505 210.757 16.0864 210.497 16.6759C210.236 17.2655 209.86 17.7967 209.39 18.2381C208.921 18.6794 208.368 19.022 207.763 19.2454C207.158 19.4688 206.515 19.5685 205.871 19.5385C203.033 19.5385 200.829 17.5102 200.829 14.806V8.194C200.829 5.48971 203.033 3.4615 205.871 3.4615C206.515 3.43154 207.158 3.5312 207.763 3.75459C208.368 3.97796 208.921 4.32049 209.39 4.76187C209.86 5.20326 210.236 5.73447 210.497 6.32405C210.757 6.9136 210.897 7.54951 210.908 8.194V14.806Z" fill="var(--fill-0, #F8F7F3)"/>
<path id="Vector_6" d="M238.892 0.467205H236.066C235.935 0.46622 235.806 0.506909 235.7 0.583431C235.593 0.659953 235.513 0.768372 235.471 0.893129L229.428 18.0519C229.407 18.1131 229.368 18.1662 229.316 18.2039C229.263 18.2415 229.199 18.2618 229.135 18.2618C229.069 18.2618 229.006 18.2415 228.954 18.2039C228.902 18.1662 228.861 18.1131 228.841 18.0519L222.825 0.893129C222.784 0.768372 222.703 0.659953 222.596 0.583431C222.489 0.506909 222.362 0.46622 222.229 0.467205H219.404C219.329 0.467328 219.255 0.485484 219.187 0.520162C219.12 0.554842 219.063 0.605037 219.019 0.666563C218.976 0.728088 218.947 0.79916 218.936 0.873854C218.926 0.948546 218.933 1.0247 218.958 1.09595L226.089 21.466C226.198 21.7738 226.4 22.0403 226.665 22.2292C226.932 22.418 227.251 22.5199 227.577 22.5207H230.693C231.019 22.5199 231.337 22.418 231.604 22.2292C231.869 22.0403 232.07 21.7738 232.18 21.466L239.311 1.09595C239.335 1.02681 239.343 0.952992 239.334 0.880317C239.324 0.807642 239.299 0.738092 239.258 0.677142C239.217 0.616192 239.163 0.565506 239.1 0.529076C239.036 0.492645 238.964 0.471467 238.892 0.467205Z" fill="var(--fill-0, #F8F7F3)"/>
<path id="Vector_7" d="M260.732 21.892L253.608 1.52186C253.499 1.21409 253.298 0.947515 253.031 0.758693C252.765 0.569871 252.447 0.468049 252.12 0.467187H249.032C248.705 0.468049 248.387 0.569871 248.121 0.758693C247.855 0.947515 247.653 1.21409 247.544 1.52186L240.42 21.892C240.395 21.9632 240.388 22.0393 240.398 22.114C240.409 22.1887 240.437 22.2597 240.481 22.3213C240.525 22.3828 240.582 22.4331 240.649 22.4678C240.717 22.5024 240.79 22.5206 240.866 22.5207H243.691C243.822 22.5207 243.951 22.4795 244.057 22.4032C244.164 22.3268 244.244 22.2189 244.287 22.0947L250.296 4.93603C250.319 4.87549 250.359 4.82334 250.412 4.78652C250.466 4.74971 250.528 4.72997 250.593 4.72997C250.658 4.72997 250.721 4.74971 250.774 4.78652C250.827 4.82334 250.868 4.87549 250.89 4.93603L256.9 22.0947C256.942 22.2183 257.023 22.3256 257.13 22.4019C257.236 22.4781 257.363 22.5196 257.494 22.5207H260.319C260.393 22.5154 260.463 22.4935 260.525 22.4567C260.588 22.4198 260.641 22.369 260.682 22.3083C260.722 22.2474 260.747 22.1782 260.755 22.106C260.764 22.0338 260.756 21.9605 260.732 21.892Z" fill="var(--fill-0, #F8F7F3)"/>
<path id="Vector_8" d="M93.8954 0.467187H91.1916C90.9537 0.472233 90.7208 0.536731 90.5142 0.654816C90.3076 0.7729 90.1338 0.940816 90.0087 1.14326L83.2898 11.4398C83.2607 11.4831 83.2215 11.5185 83.1755 11.543C83.1295 11.5675 83.0783 11.5803 83.0262 11.5803C82.9741 11.5803 82.9228 11.5675 82.8768 11.543C82.8308 11.5185 82.7916 11.4831 82.7625 11.4398L76.0437 1.14326C75.9179 0.939866 75.7431 0.771353 75.5352 0.653217C75.3274 0.53508 75.0932 0.47111 74.854 0.467187H72.1503C72.0247 0.467187 71.9045 0.517047 71.8157 0.605799C71.7269 0.694551 71.677 0.814922 71.677 0.940437V22.0475C71.677 22.1729 71.7269 22.2933 71.8157 22.3821C71.9045 22.4708 72.0247 22.5207 72.1503 22.5207H74.9892C75.1147 22.5207 75.235 22.4708 75.3238 22.3821C75.4126 22.2933 75.4624 22.1729 75.4624 22.0475V6.45043L80.8226 14.5633C80.9693 14.7745 81.1656 14.9466 81.3942 15.0644C81.6229 15.1823 81.8767 15.2423 82.134 15.2393H83.905C84.162 15.2423 84.416 15.1823 84.6446 15.0644C84.8732 14.9466 85.0695 14.7745 85.2163 14.5633L90.5764 6.45043V22.0475C90.5764 22.1729 90.6263 22.2933 90.7151 22.3821C90.8037 22.4708 90.9241 22.5207 91.0497 22.5207H93.8818C94.0074 22.5207 94.1276 22.4708 94.2164 22.3821C94.3052 22.2933 94.355 22.1729 94.355 22.0475V0.940437C94.3551 0.81723 94.307 0.698861 94.2212 0.610488C94.1353 0.522115 94.0185 0.470708 93.8954 0.467187Z" fill="var(--fill-0, #F8F7F3)"/>
<path id="Vector_9" d="M16.2676 2.31284C15.9735 1.75558 15.5329 1.28917 14.9933 0.963917C14.4537 0.638666 13.8356 0.466912 13.2056 0.467163H7.88589C7.63767 0.467162 7.39188 0.516172 7.16263 0.611387C6.93338 0.706603 6.72519 0.846147 6.54998 1.02202C6.37477 1.19789 6.236 1.40662 6.14162 1.63625C6.04724 1.86589 5.99912 2.11189 6.00001 2.36017V20.6142C5.99912 20.8624 6.04724 21.1085 6.14162 21.338C6.236 21.5677 6.37477 21.7764 6.54998 21.9523C6.72519 22.1282 6.93338 22.2677 7.16263 22.3629C7.39188 22.4581 7.63767 22.5071 7.88589 22.5071H22.7567C23.191 22.5072 23.6182 22.3951 23.9965 22.1814C24.3749 21.9679 24.6915 21.6601 24.9159 21.2881C25.1404 20.9159 25.2649 20.4923 25.2773 20.0579C25.2899 19.6236 25.1899 19.1934 24.9872 18.809L16.2676 2.31284Z" fill="var(--fill-0, #F8F7F3)"/>
<path id="Vector_10" d="M46.8417 0.467163H41.522C40.8919 0.466912 40.2738 0.638666 39.7342 0.963917C39.1946 1.28917 38.754 1.75558 38.4599 2.31284L29.7335 18.8225C29.5308 19.2069 29.4309 19.637 29.4434 20.0714C29.4558 20.5057 29.5804 20.9295 29.8048 21.3015C30.0292 21.6736 30.3459 21.9813 30.7243 22.195C31.1026 22.4085 31.5297 22.5208 31.9641 22.5207H46.8349C47.0835 22.5207 47.3295 22.4717 47.5591 22.3766C47.7887 22.2815 47.9974 22.142 48.1731 21.9662C48.3489 21.7904 48.4883 21.5818 48.5835 21.352C48.6786 21.1224 48.7275 20.8763 48.7275 20.6276V2.37369C48.7293 2.12453 48.6819 1.87747 48.588 1.64667C48.4941 1.41588 48.3556 1.2059 48.1804 1.02878C48.0051 0.851648 47.7967 0.710862 47.5669 0.614488C47.3372 0.518113 47.0907 0.468048 46.8417 0.467163Z" fill="var(--fill-0, #F8F7F3)"/>
</g>
</svg>
