<svg preserveAspectRatio="none" width="100%" height="100%" overflow="visible" style="display: block;" viewBox="0 0 72 72" fill="none" xmlns="http://www.w3.org/2000/svg">
<g id="ai:local:cache">
<path id="Vector" d="M55.6875 33.3405C55.9966 33.3405 56.3026 33.2796 56.5881 33.1613C56.8737 33.0431 57.1331 32.8697 57.3517 32.6512C57.5702 32.4326 57.7436 32.1732 57.8618 31.8876C57.9801 31.6021 58.041 31.2961 58.041 30.987C58.041 30.6779 57.9801 30.3719 57.8618 30.0864C57.7436 29.8008 57.5702 29.5414 57.3517 29.3228C57.1331 29.1043 56.8737 28.9309 56.5881 28.8126C56.3026 28.6944 55.9966 28.6335 55.6875 28.6335C55.0633 28.6335 54.4647 28.8815 54.0233 29.3228C53.582 29.7642 53.334 30.3628 53.334 30.987C53.334 31.6112 53.582 32.2098 54.0233 32.6512C54.4647 33.0925 55.0633 33.3405 55.6875 33.3405Z" fill="var(--fill-0, #00C0E8)"/>
<path id="Vector_2" fill-rule="evenodd" clip-rule="evenodd" d="M17.385 9.825L19.125 9H52.875L54.615 9.825L64.74 22.2L65.25 23.625V24.2535L65.259 24.261V38.721L63.009 40.971H9L6.75 38.721V23.625L7.26 22.2L17.385 9.825ZM11.25 26.511V36.471H60.759V28.125H60.75V26.511H11.25ZM58.773 22.011H13.227L20.1915 13.5H51.8085L58.773 22.0125V22.011Z" fill="var(--fill-0, #00C0E8)"/>
<path id="Vector_3" d="M55.6875 55.3605C56.3117 55.3605 56.9103 55.1125 57.3517 54.6712C57.793 54.2298 58.041 53.6312 58.041 53.007C58.041 52.3828 57.793 51.7842 57.3517 51.3428C56.9103 50.9015 56.3117 50.6535 55.6875 50.6535C55.0631 50.6535 54.4643 50.9015 54.0228 51.343C53.5813 51.7846 53.3333 52.3834 53.3333 53.0078C53.3333 53.6321 53.5813 54.2309 54.0228 54.6725C54.4643 55.114 55.0631 55.3605 55.6875 55.3605Z" fill="var(--fill-0, #00C0E8)"/>
<path id="Vector_4" fill-rule="evenodd" clip-rule="evenodd" d="M9 44.0325L6.75 46.2825V60.741L9 62.991H63.009L65.259 60.741V46.2825L63.009 44.0325H9ZM11.25 58.491V48.5325H60.759V58.491H11.25Z" fill="var(--fill-0, #00C0E8)"/>
</g>
</svg>
