<svg preserveAspectRatio="none" width="100%" height="100%" overflow="visible" style="display: block;" viewBox="0 0 53 54" fill="none" xmlns="http://www.w3.org/2000/svg">
<path id="Vector" d="M34.0714 23.1429H49.2143C50.218 23.1418 51.1803 22.7351 51.8901 22.012C52.5998 21.2889 52.999 20.3084 53 19.2857V3.85714C52.999 2.83448 52.5998 1.85399 51.8901 1.13086C51.1803 0.407725 50.218 0.00102113 49.2143 0H34.0714C33.0677 0.00102113 32.1054 0.407725 31.3956 1.13086C30.6859 1.85399 30.2867 2.83448 30.2857 3.85714H13.25C12.2463 3.85816 11.2839 4.26487 10.5742 4.988C9.86446 5.71114 9.46529 6.69162 9.46429 7.71429V15.4286H3.78571C2.78199 15.4296 1.81966 15.8363 1.10992 16.5594C0.400175 17.2826 0.00100222 18.2631 0 19.2857V34.7143C0.00100222 35.737 0.400175 36.7174 1.10992 37.4406C1.81966 38.1637 2.78199 38.5704 3.78571 38.5714H7.57143V46.2857C7.57243 47.3084 7.9716 48.2889 8.68135 49.012C9.39109 49.7351 10.3534 50.1418 11.3571 50.1429H30.2857C30.2867 51.1655 30.6859 52.146 31.3956 52.8691C32.1054 53.5923 33.0677 53.999 34.0714 54H49.2143C50.218 53.999 51.1803 53.5923 51.8901 52.8691C52.5998 52.146 52.999 51.1655 53 50.1429V34.7143C52.999 33.6916 52.5998 32.7111 51.8901 31.988C51.1803 31.2649 50.218 30.8582 49.2143 30.8571H34.0714C33.0677 30.8582 32.1054 31.2649 31.3956 31.988C30.6859 32.7111 30.2867 33.6916 30.2857 34.7143V46.2857H11.3571V38.5714H18.9286C19.9323 38.5704 20.8946 38.1637 21.6044 37.4406C22.3141 36.7174 22.7133 35.737 22.7143 34.7143V19.2857C22.7133 18.2631 22.3141 17.2826 21.6044 16.5594C20.8946 15.8363 19.9323 15.4296 18.9286 15.4286H13.25V7.71429H30.2857V19.2857C30.2867 20.3084 30.6859 21.2889 31.3956 22.012C32.1054 22.7351 33.0677 23.1418 34.0714 23.1429ZM34.0714 50.1429V42.4286H49.2143V50.1429H34.0714ZM49.2143 34.7143V38.5714H34.0714V34.7143H49.2143ZM3.78571 34.7143V27H18.9286V34.7143H3.78571ZM18.9286 23.1429H3.78571V19.2857H18.9286V23.1429ZM34.0714 19.2857V11.5714H49.2143V19.2857H34.0714ZM49.2143 3.85714V7.71429H34.0714V3.85714H49.2143Z" fill="var(--fill-0, #00C0E8)"/>
</svg>
