<svg preserveAspectRatio="none" width="100%" height="100%" overflow="visible" style="display: block;" viewBox="0 0 68.7049 46.1046" fill="none" xmlns="http://www.w3.org/2000/svg">
<path id="Vector" d="M57.2541 40.3416C60.4031 40.3416 62.9795 37.7482 62.9795 34.5785V5.76308C62.9795 2.59339 60.4031 0 57.2541 0H11.4508C8.30185 0 5.72541 2.59339 5.72541 5.76308V34.5785C5.72541 37.7482 8.30185 40.3416 11.4508 40.3416H2.86271C1.28822 40.3416 0 41.6383 0 43.2231C0 44.8079 1.28822 46.1046 2.86271 46.1046H65.8422C67.4167 46.1046 68.7049 44.8079 68.7049 43.2231C68.7049 41.6383 67.4167 40.3416 65.8422 40.3416H57.2541ZM14.3135 5.76308H54.3914C55.9659 5.76308 57.2541 7.05977 57.2541 8.64462V31.6969C57.2541 33.2818 55.9659 34.5785 54.3914 34.5785H14.3135C12.739 34.5785 11.4508 33.2818 11.4508 31.6969V8.64462C11.4508 7.05977 12.739 5.76308 14.3135 5.76308Z" fill="var(--fill-0, #00C0E8)"/>
</svg>
